<svg width="1600" height="1200" viewBox="0 0 1600 1200" fill="none" xmlns="http://www.w3.org/2000/svg">
  <defs>
    <radialGradient id="caveGlow" cx="0" cy="0" r="1" gradientUnits="userSpaceOnUse" gradientTransform="translate(820 580) rotate(90) scale(760 1100)">
      <stop offset="0" stop-color="#4C4A42"/>
      <stop offset="0.45" stop-color="#2C2A25"/>
      <stop offset="1" stop-color="#11100E"/>
    </radialGradient>
    <linearGradient id="ground" x1="800" y1="700" x2="800" y2="1200" gradientUnits="userSpaceOnUse">
      <stop stop-color="#2E2B26"/>
      <stop offset="1" stop-color="#141311"/>
    </linearGradient>
    <radialGradient id="lamp1" cx="0" cy="0" r="1" gradientUnits="userSpaceOnUse" gradientTransform="translate(560 585) rotate(90) scale(140 200)">
      <stop stop-color="#F9D45E" stop-opacity="0.55"/>
      <stop offset="1" stop-color="#F9D45E" stop-opacity="0"/>
    </radialGradient>
    <radialGradient id="lamp2" cx="0" cy="0" r="1" gradientUnits="userSpaceOnUse" gradientTransform="translate(815 540) rotate(90) scale(170 230)">
      <stop stop-color="#F9D45E" stop-opacity="0.52"/>
      <stop offset="1" stop-color="#F9D45E" stop-opacity="0"/>
    </radialGradient>
    <radialGradient id="lamp3" cx="0" cy="0" r="1" gradientUnits="userSpaceOnUse" gradientTransform="translate(1060 590) rotate(90) scale(140 210)">
      <stop stop-color="#F9D45E" stop-opacity="0.5"/>
      <stop offset="1" stop-color="#F9D45E" stop-opacity="0"/>
    </radialGradient>
  </defs>

  <rect width="1600" height="1200" fill="url(#caveGlow)"/>

  <path d="M0 225C120 265 200 360 330 390C510 432 640 335 795 315C980 290 1090 400 1260 430C1380 450 1470 385 1600 330V0H0V225Z" fill="#1B1916" opacity="0.88"/>
  <path d="M0 340C90 370 180 455 300 490C505 548 680 420 835 405C970 393 1085 470 1210 520C1320 563 1445 580 1600 550V180H0V340Z" fill="#201E1A" opacity="0.78"/>
  <path d="M0 700L1600 665V1200H0V700Z" fill="url(#ground)"/>

  <path d="M190 1200L600 730" stroke="#4A463F" stroke-width="12"/>
  <path d="M1410 1200L1000 730" stroke="#4A463F" stroke-width="12"/>
  <path d="M235 1200L622 745" stroke="#8F8669" stroke-width="6"/>
  <path d="M1365 1200L978 745" stroke="#8F8669" stroke-width="6"/>

  <g opacity="0.5" stroke="#6E6655" stroke-width="5">
    <line x1="330" y1="1080" x2="1270" y2="1080"/>
    <line x1="365" y1="1030" x2="1235" y2="1030"/>
    <line x1="405" y1="980" x2="1195" y2="980"/>
    <line x1="450" y1="930" x2="1150" y2="930"/>
    <line x1="500" y1="880" x2="1100" y2="880"/>
    <line x1="555" y1="830" x2="1045" y2="830"/>
    <line x1="615" y1="780" x2="985" y2="780"/>
  </g>

  <rect x="742" y="430" width="116" height="24" rx="8" fill="#E9C14C"/>
  <rect x="772" y="396" width="56" height="42" rx="10" fill="#E9C14C"/>
  <circle cx="800" cy="505" r="62" fill="#D6B086"/>
  <rect x="744" y="565" width="112" height="148" rx="30" fill="#2C4152"/>
  <rect x="718" y="705" width="70" height="180" rx="26" fill="#243645"/>
  <rect x="812" y="705" width="70" height="180" rx="26" fill="#243645"/>
  <rect x="736" y="885" width="56" height="44" rx="6" fill="#121212"/>
  <rect x="808" y="885" width="56" height="44" rx="6" fill="#121212"/>
  <circle cx="784" cy="500" r="6" fill="#1B1B1B"/>
  <circle cx="816" cy="500" r="6" fill="#1B1B1B"/>
  <path d="M780 530C790 540 810 540 820 530" stroke="#4A3024" stroke-width="5" stroke-linecap="round"/>
  <circle cx="800" cy="418" r="13" fill="#FFF3B6"/>
  <circle cx="800" cy="418" r="8" fill="#F2C94C"/>
  <ellipse cx="800" cy="542" rx="22" ry="12" fill="#4B2F21" opacity="0.9"/>

  <rect x="506" y="476" width="98" height="22" rx="7" fill="#E1BC4B"/>
  <rect x="530" y="445" width="50" height="36" rx="9" fill="#E1BC4B"/>
  <circle cx="555" cy="550" r="54" fill="#CDA580"/>
  <rect x="506" y="602" width="98" height="136" rx="28" fill="#4B3F32"/>
  <rect x="483" y="732" width="60" height="152" rx="24" fill="#3A3229"/>
  <rect x="566" y="732" width="60" height="152" rx="24" fill="#3A3229"/>
  <circle cx="540" cy="547" r="5" fill="#1A1A1A"/>
  <circle cx="570" cy="547" r="5" fill="#1A1A1A"/>
  <path d="M538 573C546 583 562 583 570 573" stroke="#41261B" stroke-width="4" stroke-linecap="round"/>
  <circle cx="555" cy="466" r="11" fill="#FFF2AE"/>
  <circle cx="555" cy="466" r="7" fill="#F2C94C"/>

  <rect x="1012" y="482" width="96" height="22" rx="7" fill="#E1BC4B"/>
  <rect x="1036" y="451" width="48" height="36" rx="9" fill="#E1BC4B"/>
  <circle cx="1060" cy="555" r="55" fill="#CFA883"/>
  <rect x="1011" y="607" width="98" height="140" rx="28" fill="#36503F"/>
  <rect x="987" y="739" width="60" height="148" rx="24" fill="#2B3F31"/>
  <rect x="1071" y="739" width="60" height="148" rx="24" fill="#2B3F31"/>
  <circle cx="1045" cy="551" r="5" fill="#1A1A1A"/>
  <circle cx="1075" cy="551" r="5" fill="#1A1A1A"/>
  <path d="M1044 578C1052 586 1068 586 1076 578" stroke="#41261B" stroke-width="4" stroke-linecap="round"/>
  <circle cx="1060" cy="472" r="11" fill="#FFF2AE"/>
  <circle cx="1060" cy="472" r="7" fill="#F2C94C"/>

  <ellipse cx="560" cy="585" rx="210" ry="150" fill="url(#lamp1)"/>
  <ellipse cx="815" cy="540" rx="250" ry="185" fill="url(#lamp2)"/>
  <ellipse cx="1060" cy="590" rx="220" ry="160" fill="url(#lamp3)"/>

  <g opacity="0.23" fill="#C3B08A">
    <circle cx="120" cy="1020" r="18"/>
    <circle cx="260" cy="1120" r="12"/>
    <circle cx="1420" cy="1060" r="16"/>
    <circle cx="1500" cy="980" r="10"/>
    <circle cx="1300" cy="1140" r="14"/>
  </g>
</svg>
